<svg width="8" height="15" viewBox="0 0 8 15" fill="none" xmlns="http://www.w3.org/2000/svg">
<path d="M2.34668 9.71143C2.34668 9.44621 2.24132 9.19186 2.05379 9.00432C1.86625 8.81679 1.6119 8.71143 1.34668 8.71143C1.08146 8.71143 0.82711 8.81679 0.639574 9.00432C0.452038 9.19186 0.34668 9.44621 0.34668 9.71143C0.383121 10.4461 0.664014 11.1476 1.14474 11.7044C1.62547 12.2612 2.27846 12.6414 3 12.7847V13.3965C3 13.6617 3.10536 13.916 3.29289 14.1036C3.48043 14.2911 3.73478 14.3965 4 14.3965C4.26522 14.3965 4.51957 14.2911 4.70711 14.1036C4.89464 13.916 5 13.6617 5 13.3965V12.7847C5.72154 12.6414 6.37453 12.2612 6.85526 11.7044C7.33599 11.1476 7.61688 10.4461 7.65332 9.71143C7.61696 8.97664 7.33611 8.27506 6.85538 7.71816C6.37465 7.16126 5.72161 6.78097 5 6.6377V4.33813C5.18303 4.42487 5.33987 4.55848 5.45461 4.7254C5.56935 4.89232 5.6379 5.08661 5.65332 5.28857C5.65332 5.55379 5.75868 5.80814 5.94621 5.99568C6.13375 6.18321 6.3881 6.28857 6.65332 6.28857C6.91854 6.28857 7.17289 6.18321 7.36043 5.99568C7.54796 5.80814 7.65332 5.55379 7.65332 5.28857C7.61688 4.55386 7.33599 3.85238 6.85526 3.29558C6.37453 2.73877 5.72154 2.35856 5 2.21533V1.60352C5 1.3383 4.89464 1.08395 4.70711 0.896412C4.51957 0.708876 4.26522 0.603519 4 0.603519C3.73478 0.603519 3.48043 0.708876 3.29289 0.896412C3.10536 1.08395 3 1.3383 3 1.60352V2.21533C2.27846 2.35856 1.62547 2.73877 1.14474 3.29558C0.664014 3.85238 0.383121 4.55386 0.34668 5.28857C0.383038 6.02336 0.663891 6.72493 1.14462 7.28184C1.62535 7.83874 2.27839 8.21903 3 8.3623V10.6617C2.81696 10.575 2.66012 10.4415 2.54538 10.2746C2.43064 10.1077 2.36208 9.91338 2.34668 9.71143ZM5.65332 9.71143C5.63792 9.91338 5.56936 10.1077 5.45462 10.2746C5.33988 10.4415 5.18304 10.575 5 10.6617V8.76062C5.18309 8.84739 5.33997 8.98105 5.45471 9.14804C5.56945 9.31503 5.63797 9.5094 5.65332 9.71143ZM2.34668 5.28857C2.3621 5.08661 2.43065 4.89232 2.54539 4.7254C2.66013 4.55848 2.81697 4.42487 3 4.33813V6.23938C2.81691 6.15261 2.66003 6.01895 2.54529 5.85196C2.43054 5.68497 2.36202 5.4906 2.34668 5.28857Z" fill="#009FC0"/>
</svg>
